<mxfile host="Electron" modified="2023-04-22T08:46:58.530Z" agent="Mozilla/5.0 (X11; Linux x86_64) AppleWebKit/537.36 (KHTML, like Gecko) draw.io/21.2.1 Chrome/112.0.5615.87 Electron/24.1.2 Safari/537.36" etag="bOBD5kkiw5r_VJnDT01c" version="21.2.1" type="device">
  <diagram name="第 1 页" id="njsAvb-eQRQS3Qh5l6yP">
    <mxGraphModel dx="1303" dy="1038" grid="1" gridSize="10" guides="1" tooltips="1" connect="1" arrows="1" fold="1" page="1" pageScale="1" pageWidth="1654" pageHeight="1169" math="0" shadow="0">
      <root>
        <mxCell id="0" />
        <mxCell id="1" parent="0" />
        <mxCell id="r0upS1l9h9ShBbEGeOB--37" value="" style="rounded=1;whiteSpace=wrap;html=1;strokeColor=#9673a6;strokeWidth=2;fillColor=#e1d5e7;dashed=1;opacity=70;" parent="1" vertex="1">
          <mxGeometry x="160" y="660" width="830" height="220" as="geometry" />
        </mxCell>
        <mxCell id="r0upS1l9h9ShBbEGeOB--30" value="" style="group;opacity=70;" parent="1" vertex="1" connectable="0">
          <mxGeometry x="90" y="440" width="900" height="300" as="geometry" />
        </mxCell>
        <mxCell id="r0upS1l9h9ShBbEGeOB--23" value="" style="rounded=1;whiteSpace=wrap;html=1;strokeColor=#6c8ebf;strokeWidth=2;fillColor=#dae8fc;dashed=1;opacity=70;" parent="r0upS1l9h9ShBbEGeOB--30" vertex="1">
          <mxGeometry x="70" y="-80" width="830" height="290" as="geometry" />
        </mxCell>
        <mxCell id="r0upS1l9h9ShBbEGeOB--31" style="edgeStyle=orthogonalEdgeStyle;rounded=1;orthogonalLoop=1;jettySize=auto;html=1;exitX=1;exitY=0.5;exitDx=0;exitDy=0;entryX=0;entryY=0.5;entryDx=0;entryDy=0;endArrow=none;endFill=0;strokeWidth=5;" parent="r0upS1l9h9ShBbEGeOB--30" source="r0upS1l9h9ShBbEGeOB--22" target="r0upS1l9h9ShBbEGeOB--25" edge="1">
          <mxGeometry relative="1" as="geometry" />
        </mxCell>
        <mxCell id="r0upS1l9h9ShBbEGeOB--22" value="" style="rounded=0;whiteSpace=wrap;html=1;strokeColor=#432D57;strokeWidth=5;fillColor=#76608a;fontColor=#ffffff;container=0;" parent="r0upS1l9h9ShBbEGeOB--30" vertex="1">
          <mxGeometry width="45" height="120" as="geometry" />
        </mxCell>
        <mxCell id="r0upS1l9h9ShBbEGeOB--1" value="" style="rounded=0;whiteSpace=wrap;html=1;strokeWidth=5;strokeColor=none;fillColor=#CC00CC;container=0;" parent="r0upS1l9h9ShBbEGeOB--30" vertex="1">
          <mxGeometry x="230" width="30" height="120" as="geometry" />
        </mxCell>
        <mxCell id="r0upS1l9h9ShBbEGeOB--2" value="" style="rounded=0;whiteSpace=wrap;html=1;strokeWidth=5;strokeColor=none;fillColor=#99FF99;container=0;" parent="r0upS1l9h9ShBbEGeOB--30" vertex="1">
          <mxGeometry x="260" width="30" height="120" as="geometry" />
        </mxCell>
        <mxCell id="r0upS1l9h9ShBbEGeOB--33" style="edgeStyle=orthogonalEdgeStyle;rounded=1;orthogonalLoop=1;jettySize=auto;html=1;exitX=1;exitY=0.5;exitDx=0;exitDy=0;entryX=0;entryY=0.5;entryDx=0;entryDy=0;strokeWidth=5;endArrow=none;endFill=0;" parent="r0upS1l9h9ShBbEGeOB--30" source="r0upS1l9h9ShBbEGeOB--3" target="r0upS1l9h9ShBbEGeOB--11" edge="1">
          <mxGeometry relative="1" as="geometry" />
        </mxCell>
        <mxCell id="r0upS1l9h9ShBbEGeOB--3" value="" style="rounded=0;whiteSpace=wrap;html=1;strokeWidth=5;strokeColor=none;fillColor=#6666FF;container=0;" parent="r0upS1l9h9ShBbEGeOB--30" vertex="1">
          <mxGeometry x="290" width="30" height="120" as="geometry" />
        </mxCell>
        <mxCell id="r0upS1l9h9ShBbEGeOB--11" value="" style="rounded=0;whiteSpace=wrap;html=1;strokeWidth=5;strokeColor=none;fillColor=#CC00CC;container=0;" parent="r0upS1l9h9ShBbEGeOB--30" vertex="1">
          <mxGeometry x="350" width="30" height="120" as="geometry" />
        </mxCell>
        <mxCell id="r0upS1l9h9ShBbEGeOB--12" value="" style="rounded=0;whiteSpace=wrap;html=1;strokeWidth=5;strokeColor=none;fillColor=#99FF99;container=0;" parent="r0upS1l9h9ShBbEGeOB--30" vertex="1">
          <mxGeometry x="380" width="30" height="120" as="geometry" />
        </mxCell>
        <mxCell id="r0upS1l9h9ShBbEGeOB--34" style="edgeStyle=orthogonalEdgeStyle;rounded=1;orthogonalLoop=1;jettySize=auto;html=1;exitX=1;exitY=0.5;exitDx=0;exitDy=0;entryX=0;entryY=0.5;entryDx=0;entryDy=0;strokeWidth=5;endArrow=none;endFill=0;" parent="r0upS1l9h9ShBbEGeOB--30" source="r0upS1l9h9ShBbEGeOB--13" target="r0upS1l9h9ShBbEGeOB--15" edge="1">
          <mxGeometry relative="1" as="geometry" />
        </mxCell>
        <mxCell id="r0upS1l9h9ShBbEGeOB--13" value="" style="rounded=0;whiteSpace=wrap;html=1;strokeWidth=5;strokeColor=none;fillColor=#6666FF;container=0;" parent="r0upS1l9h9ShBbEGeOB--30" vertex="1">
          <mxGeometry x="410" width="30" height="120" as="geometry" />
        </mxCell>
        <mxCell id="r0upS1l9h9ShBbEGeOB--15" value="" style="rounded=0;whiteSpace=wrap;html=1;strokeWidth=5;strokeColor=none;fillColor=#CC00CC;container=0;" parent="r0upS1l9h9ShBbEGeOB--30" vertex="1">
          <mxGeometry x="470" width="30" height="120" as="geometry" />
        </mxCell>
        <mxCell id="r0upS1l9h9ShBbEGeOB--16" value="" style="rounded=0;whiteSpace=wrap;html=1;strokeWidth=5;strokeColor=none;fillColor=#99FF99;container=0;" parent="r0upS1l9h9ShBbEGeOB--30" vertex="1">
          <mxGeometry x="500" width="30" height="120" as="geometry" />
        </mxCell>
        <mxCell id="r0upS1l9h9ShBbEGeOB--35" style="edgeStyle=orthogonalEdgeStyle;rounded=1;orthogonalLoop=1;jettySize=auto;html=1;exitX=1;exitY=0.5;exitDx=0;exitDy=0;entryX=0;entryY=0.5;entryDx=0;entryDy=0;strokeWidth=5;endArrow=none;endFill=0;" parent="r0upS1l9h9ShBbEGeOB--30" source="r0upS1l9h9ShBbEGeOB--17" target="r0upS1l9h9ShBbEGeOB--19" edge="1">
          <mxGeometry relative="1" as="geometry" />
        </mxCell>
        <mxCell id="r0upS1l9h9ShBbEGeOB--17" value="" style="rounded=0;whiteSpace=wrap;html=1;strokeWidth=5;strokeColor=none;fillColor=#6666FF;container=0;" parent="r0upS1l9h9ShBbEGeOB--30" vertex="1">
          <mxGeometry x="530" width="30" height="120" as="geometry" />
        </mxCell>
        <mxCell id="r0upS1l9h9ShBbEGeOB--19" value="" style="rounded=0;whiteSpace=wrap;html=1;strokeWidth=5;strokeColor=none;fillColor=#CC00CC;container=0;" parent="r0upS1l9h9ShBbEGeOB--30" vertex="1">
          <mxGeometry x="590" width="30" height="120" as="geometry" />
        </mxCell>
        <mxCell id="r0upS1l9h9ShBbEGeOB--20" value="" style="rounded=0;whiteSpace=wrap;html=1;strokeWidth=5;strokeColor=none;fillColor=#99FF99;container=0;" parent="r0upS1l9h9ShBbEGeOB--30" vertex="1">
          <mxGeometry x="620" width="30" height="120" as="geometry" />
        </mxCell>
        <mxCell id="r0upS1l9h9ShBbEGeOB--21" value="" style="rounded=0;whiteSpace=wrap;html=1;strokeWidth=5;strokeColor=none;fillColor=#6666FF;container=0;" parent="r0upS1l9h9ShBbEGeOB--30" vertex="1">
          <mxGeometry x="650" width="30" height="120" as="geometry" />
        </mxCell>
        <mxCell id="r0upS1l9h9ShBbEGeOB--25" value="" style="rounded=0;whiteSpace=wrap;html=1;strokeWidth=5;strokeColor=none;fillColor=#CC00CC;container=0;" parent="r0upS1l9h9ShBbEGeOB--30" vertex="1">
          <mxGeometry x="80" width="39.99999999999999" height="120" as="geometry" />
        </mxCell>
        <mxCell id="r0upS1l9h9ShBbEGeOB--26" value="" style="rounded=0;whiteSpace=wrap;html=1;strokeWidth=5;strokeColor=none;fillColor=#99FF99;container=0;" parent="r0upS1l9h9ShBbEGeOB--30" vertex="1">
          <mxGeometry x="120" width="39.99999999999999" height="120" as="geometry" />
        </mxCell>
        <mxCell id="r0upS1l9h9ShBbEGeOB--32" style="edgeStyle=orthogonalEdgeStyle;rounded=1;orthogonalLoop=1;jettySize=auto;html=1;exitX=1;exitY=0.5;exitDx=0;exitDy=0;entryX=0;entryY=0.5;entryDx=0;entryDy=0;strokeWidth=5;endArrow=none;endFill=0;" parent="r0upS1l9h9ShBbEGeOB--30" source="r0upS1l9h9ShBbEGeOB--27" target="r0upS1l9h9ShBbEGeOB--1" edge="1">
          <mxGeometry relative="1" as="geometry" />
        </mxCell>
        <mxCell id="r0upS1l9h9ShBbEGeOB--27" value="" style="rounded=0;whiteSpace=wrap;html=1;strokeWidth=5;strokeColor=none;fillColor=#6666FF;container=0;" parent="r0upS1l9h9ShBbEGeOB--30" vertex="1">
          <mxGeometry x="160" width="39.99999999999999" height="120" as="geometry" />
        </mxCell>
        <mxCell id="r0upS1l9h9ShBbEGeOB--108" value="" style="endArrow=none;html=1;rounded=1;strokeWidth=5;fontSize=16;curved=1;elbow=vertical;exitX=1;exitY=0.5;exitDx=0;exitDy=0;" parent="r0upS1l9h9ShBbEGeOB--30" source="r0upS1l9h9ShBbEGeOB--70" edge="1">
          <mxGeometry width="50" height="50" relative="1" as="geometry">
            <mxPoint x="380" y="200" as="sourcePoint" />
            <mxPoint x="460" y="150" as="targetPoint" />
          </mxGeometry>
        </mxCell>
        <mxCell id="r0upS1l9h9ShBbEGeOB--109" value="" style="endArrow=none;html=1;rounded=1;strokeWidth=5;fontSize=16;curved=1;elbow=vertical;exitX=1;exitY=0.5;exitDx=0;exitDy=0;" parent="r0upS1l9h9ShBbEGeOB--30" edge="1">
          <mxGeometry width="50" height="50" relative="1" as="geometry">
            <mxPoint x="280" y="300" as="sourcePoint" />
            <mxPoint x="340" y="150" as="targetPoint" />
          </mxGeometry>
        </mxCell>
        <mxCell id="r0upS1l9h9ShBbEGeOB--111" value="" style="endArrow=none;html=1;rounded=1;strokeWidth=5;fontSize=16;curved=1;elbow=vertical;exitX=1;exitY=0.5;exitDx=0;exitDy=0;" parent="r0upS1l9h9ShBbEGeOB--30" edge="1">
          <mxGeometry width="50" height="50" relative="1" as="geometry">
            <mxPoint x="160" y="300" as="sourcePoint" />
            <mxPoint x="230" y="150" as="targetPoint" />
          </mxGeometry>
        </mxCell>
        <mxCell id="r0upS1l9h9ShBbEGeOB--104" value="" style="endArrow=none;html=1;rounded=1;strokeWidth=5;fontSize=16;curved=1;elbow=vertical;entryX=0;entryY=0.5;entryDx=0;entryDy=0;" parent="r0upS1l9h9ShBbEGeOB--30" target="r0upS1l9h9ShBbEGeOB--38" edge="1">
          <mxGeometry width="50" height="50" relative="1" as="geometry">
            <mxPoint x="225" y="149.5" as="sourcePoint" />
            <mxPoint x="555" y="149.5" as="targetPoint" />
          </mxGeometry>
        </mxCell>
        <mxCell id="r0upS1l9h9ShBbEGeOB--114" value="" style="endArrow=none;html=1;rounded=1;strokeWidth=5;fontSize=16;curved=1;elbow=vertical;exitX=1;exitY=0.5;exitDx=0;exitDy=0;" parent="r0upS1l9h9ShBbEGeOB--30" edge="1">
          <mxGeometry width="50" height="50" relative="1" as="geometry">
            <mxPoint x="520" y="300" as="sourcePoint" />
            <mxPoint x="570" y="150" as="targetPoint" />
          </mxGeometry>
        </mxCell>
        <mxCell id="r0upS1l9h9ShBbEGeOB--119" value="" style="endArrow=none;html=1;rounded=1;strokeWidth=5;fontSize=16;elbow=vertical;" parent="r0upS1l9h9ShBbEGeOB--30" edge="1">
          <mxGeometry width="50" height="50" relative="1" as="geometry">
            <mxPoint x="670" y="300" as="sourcePoint" />
            <mxPoint x="710" y="152.5" as="targetPoint" />
          </mxGeometry>
        </mxCell>
        <mxCell id="r0upS1l9h9ShBbEGeOB--121" value="&lt;font color=&quot;#ffffff&quot; style=&quot;font-size: 20px;&quot;&gt;&lt;b&gt;Input&lt;/b&gt;&lt;/font&gt;" style="text;html=1;strokeColor=none;fillColor=none;align=center;verticalAlign=middle;whiteSpace=wrap;rounded=0;fontSize=16;rotation=-90;" parent="r0upS1l9h9ShBbEGeOB--30" vertex="1">
          <mxGeometry x="-7.5" y="45" width="60" height="30" as="geometry" />
        </mxCell>
        <mxCell id="r0upS1l9h9ShBbEGeOB--123" value="&lt;font color=&quot;#ffffff&quot;&gt;&lt;span style=&quot;font-size: 20px;&quot;&gt;&lt;b&gt;Conv&lt;/b&gt;&lt;/span&gt;&lt;/font&gt;" style="text;html=1;strokeColor=none;fillColor=none;align=center;verticalAlign=middle;whiteSpace=wrap;rounded=0;fontSize=16;rotation=-90;" parent="r0upS1l9h9ShBbEGeOB--30" vertex="1">
          <mxGeometry x="70" y="45" width="60" height="30" as="geometry" />
        </mxCell>
        <mxCell id="r0upS1l9h9ShBbEGeOB--124" value="&lt;font color=&quot;#ffffff&quot; style=&quot;font-size: 20px;&quot;&gt;&lt;b&gt;Batch norm&lt;/b&gt;&lt;/font&gt;" style="text;html=1;strokeColor=none;fillColor=none;align=center;verticalAlign=middle;whiteSpace=wrap;rounded=0;fontSize=16;rotation=-90;" parent="r0upS1l9h9ShBbEGeOB--30" vertex="1">
          <mxGeometry x="75" y="47.5" width="130" height="25" as="geometry" />
        </mxCell>
        <mxCell id="r0upS1l9h9ShBbEGeOB--125" value="&lt;font color=&quot;#ffffff&quot; style=&quot;font-size: 20px;&quot;&gt;&lt;b&gt;GLU&lt;/b&gt;&lt;/font&gt;" style="text;html=1;strokeColor=none;fillColor=none;align=center;verticalAlign=middle;whiteSpace=wrap;rounded=0;fontSize=16;rotation=-90;" parent="r0upS1l9h9ShBbEGeOB--30" vertex="1">
          <mxGeometry x="150" y="45" width="60" height="30" as="geometry" />
        </mxCell>
        <mxCell id="r0upS1l9h9ShBbEGeOB--146" value="&lt;div style=&quot;text-align: left;&quot;&gt;&lt;span style=&quot;font-size: 15px; color: rgb(0, 0, 0); background-color: initial;&quot;&gt;&lt;b&gt;h 9&lt;/b&gt;&lt;/span&gt;&lt;/div&gt;&lt;font color=&quot;#000000&quot; style=&quot;font-size: 15px;&quot;&gt;&lt;b&gt;&lt;div style=&quot;text-align: left;&quot;&gt;&lt;span style=&quot;background-color: initial;&quot;&gt;w 128&lt;/span&gt;&lt;/div&gt;&lt;div style=&quot;text-align: left;&quot;&gt;&lt;span style=&quot;background-color: initial;&quot;&gt;c 4&lt;/span&gt;&lt;/div&gt;&lt;/b&gt;&lt;/font&gt;" style="text;html=1;strokeColor=none;fillColor=none;align=center;verticalAlign=middle;whiteSpace=wrap;rounded=0;fontSize=20;fontColor=#FFFFFF;" parent="r0upS1l9h9ShBbEGeOB--30" vertex="1">
          <mxGeometry x="567" y="163.5" width="60" height="30" as="geometry" />
        </mxCell>
        <mxCell id="r0upS1l9h9ShBbEGeOB--148" value="&lt;div style=&quot;text-align: left;&quot;&gt;&lt;span style=&quot;font-size: 15px; color: rgb(0, 0, 0); background-color: initial;&quot;&gt;&lt;b&gt;h 9&lt;/b&gt;&lt;/span&gt;&lt;/div&gt;&lt;font color=&quot;#000000&quot; style=&quot;font-size: 15px;&quot;&gt;&lt;b&gt;&lt;div style=&quot;text-align: left;&quot;&gt;&lt;span style=&quot;background-color: initial;&quot;&gt;w 128&lt;/span&gt;&lt;/div&gt;&lt;div style=&quot;text-align: left;&quot;&gt;&lt;span style=&quot;background-color: initial;&quot;&gt;c 4&lt;/span&gt;&lt;/div&gt;&lt;/b&gt;&lt;/font&gt;" style="text;html=1;strokeColor=none;fillColor=none;align=center;verticalAlign=middle;whiteSpace=wrap;rounded=0;fontSize=20;fontColor=#FFFFFF;" parent="r0upS1l9h9ShBbEGeOB--30" vertex="1">
          <mxGeometry x="455" y="164.5" width="60" height="30" as="geometry" />
        </mxCell>
        <mxCell id="r0upS1l9h9ShBbEGeOB--149" value="&lt;div style=&quot;text-align: left;&quot;&gt;&lt;span style=&quot;font-size: 15px; color: rgb(0, 0, 0); background-color: initial;&quot;&gt;&lt;b&gt;h 18&lt;/b&gt;&lt;/span&gt;&lt;/div&gt;&lt;font color=&quot;#000000&quot; style=&quot;font-size: 15px;&quot;&gt;&lt;b&gt;&lt;div style=&quot;text-align: left;&quot;&gt;&lt;span style=&quot;background-color: initial;&quot;&gt;w 256&lt;/span&gt;&lt;/div&gt;&lt;div style=&quot;text-align: left;&quot;&gt;&lt;span style=&quot;background-color: initial;&quot;&gt;c 4&lt;/span&gt;&lt;/div&gt;&lt;/b&gt;&lt;/font&gt;" style="text;html=1;strokeColor=none;fillColor=none;align=center;verticalAlign=middle;whiteSpace=wrap;rounded=0;fontSize=20;fontColor=#FFFFFF;" parent="r0upS1l9h9ShBbEGeOB--30" vertex="1">
          <mxGeometry x="335" y="164.5" width="60" height="30" as="geometry" />
        </mxCell>
        <mxCell id="r0upS1l9h9ShBbEGeOB--150" value="&lt;div style=&quot;text-align: left;&quot;&gt;&lt;span style=&quot;font-size: 15px; color: rgb(0, 0, 0); background-color: initial;&quot;&gt;&lt;b&gt;h 36&lt;/b&gt;&lt;/span&gt;&lt;/div&gt;&lt;font color=&quot;#000000&quot; style=&quot;font-size: 15px;&quot;&gt;&lt;b&gt;&lt;div style=&quot;text-align: left;&quot;&gt;&lt;span style=&quot;background-color: initial;&quot;&gt;w 512&lt;/span&gt;&lt;/div&gt;&lt;div style=&quot;text-align: left;&quot;&gt;&lt;span style=&quot;background-color: initial;&quot;&gt;c 4&lt;/span&gt;&lt;/div&gt;&lt;/b&gt;&lt;/font&gt;" style="text;html=1;strokeColor=none;fillColor=none;align=center;verticalAlign=middle;whiteSpace=wrap;rounded=0;fontSize=20;fontColor=#FFFFFF;" parent="r0upS1l9h9ShBbEGeOB--30" vertex="1">
          <mxGeometry x="227" y="164.5" width="60" height="30" as="geometry" />
        </mxCell>
        <mxCell id="r0upS1l9h9ShBbEGeOB--151" value="&lt;div style=&quot;text-align: left;&quot;&gt;&lt;font color=&quot;#000000&quot;&gt;&lt;span style=&quot;font-size: 15px;&quot;&gt;&lt;b&gt;k 3x9&lt;/b&gt;&lt;/span&gt;&lt;/font&gt;&lt;/div&gt;&lt;div style=&quot;text-align: left;&quot;&gt;&lt;font color=&quot;#000000&quot;&gt;&lt;span style=&quot;font-size: 15px;&quot;&gt;&lt;b&gt;c 32&lt;/b&gt;&lt;/span&gt;&lt;/font&gt;&lt;/div&gt;&lt;div style=&quot;text-align: left;&quot;&gt;&lt;font color=&quot;#000000&quot;&gt;&lt;span style=&quot;font-size: 15px;&quot;&gt;&lt;b&gt;s 1x1&lt;/b&gt;&lt;/span&gt;&lt;/font&gt;&lt;/div&gt;" style="text;html=1;strokeColor=none;fillColor=none;align=center;verticalAlign=middle;whiteSpace=wrap;rounded=0;fontSize=20;fontColor=#FFFFFF;" parent="r0upS1l9h9ShBbEGeOB--30" vertex="1">
          <mxGeometry x="80" y="-50" width="60" height="30" as="geometry" />
        </mxCell>
        <mxCell id="r0upS1l9h9ShBbEGeOB--152" value="&lt;div style=&quot;text-align: left;&quot;&gt;&lt;font color=&quot;#000000&quot;&gt;&lt;span style=&quot;font-size: 15px;&quot;&gt;&lt;b&gt;k 4x8&lt;/b&gt;&lt;/span&gt;&lt;/font&gt;&lt;/div&gt;&lt;div style=&quot;text-align: left;&quot;&gt;&lt;font color=&quot;#000000&quot;&gt;&lt;span style=&quot;font-size: 15px;&quot;&gt;&lt;b&gt;c 64&lt;/b&gt;&lt;/span&gt;&lt;/font&gt;&lt;/div&gt;&lt;div style=&quot;text-align: left;&quot;&gt;&lt;font color=&quot;#000000&quot;&gt;&lt;span style=&quot;font-size: 15px;&quot;&gt;&lt;b&gt;s 2x2&lt;/b&gt;&lt;/span&gt;&lt;/font&gt;&lt;/div&gt;" style="text;html=1;strokeColor=none;fillColor=none;align=center;verticalAlign=middle;whiteSpace=wrap;rounded=0;fontSize=20;fontColor=#FFFFFF;" parent="r0upS1l9h9ShBbEGeOB--30" vertex="1">
          <mxGeometry x="227" y="-50" width="60" height="30" as="geometry" />
        </mxCell>
        <mxCell id="r0upS1l9h9ShBbEGeOB--153" value="&lt;div style=&quot;text-align: left;&quot;&gt;&lt;font color=&quot;#000000&quot;&gt;&lt;span style=&quot;font-size: 15px;&quot;&gt;&lt;b&gt;k 4x8&lt;/b&gt;&lt;/span&gt;&lt;/font&gt;&lt;/div&gt;&lt;div style=&quot;text-align: left;&quot;&gt;&lt;font color=&quot;#000000&quot;&gt;&lt;span style=&quot;font-size: 15px;&quot;&gt;&lt;b&gt;c 128&lt;/b&gt;&lt;/span&gt;&lt;/font&gt;&lt;/div&gt;&lt;div style=&quot;text-align: left;&quot;&gt;&lt;font color=&quot;#000000&quot;&gt;&lt;span style=&quot;font-size: 15px;&quot;&gt;&lt;b&gt;s 2x2&lt;/b&gt;&lt;/span&gt;&lt;/font&gt;&lt;/div&gt;" style="text;html=1;strokeColor=none;fillColor=none;align=center;verticalAlign=middle;whiteSpace=wrap;rounded=0;fontSize=20;fontColor=#FFFFFF;" parent="r0upS1l9h9ShBbEGeOB--30" vertex="1">
          <mxGeometry x="350" y="-50" width="60" height="30" as="geometry" />
        </mxCell>
        <mxCell id="r0upS1l9h9ShBbEGeOB--154" value="&lt;div style=&quot;text-align: left;&quot;&gt;&lt;font color=&quot;#000000&quot;&gt;&lt;span style=&quot;font-size: 15px;&quot;&gt;&lt;b&gt;k 3x5&lt;/b&gt;&lt;/span&gt;&lt;/font&gt;&lt;/div&gt;&lt;div style=&quot;text-align: left;&quot;&gt;&lt;font color=&quot;#000000&quot;&gt;&lt;span style=&quot;font-size: 15px;&quot;&gt;&lt;b&gt;c 64&lt;/b&gt;&lt;/span&gt;&lt;/font&gt;&lt;/div&gt;&lt;div style=&quot;text-align: left;&quot;&gt;&lt;font color=&quot;#000000&quot;&gt;&lt;span style=&quot;font-size: 15px;&quot;&gt;&lt;b&gt;s 1x1&lt;/b&gt;&lt;/span&gt;&lt;/font&gt;&lt;/div&gt;" style="text;html=1;strokeColor=none;fillColor=none;align=center;verticalAlign=middle;whiteSpace=wrap;rounded=0;fontSize=20;fontColor=#FFFFFF;" parent="r0upS1l9h9ShBbEGeOB--30" vertex="1">
          <mxGeometry x="470" y="-50" width="60" height="30" as="geometry" />
        </mxCell>
        <mxCell id="r0upS1l9h9ShBbEGeOB--155" value="&lt;div style=&quot;text-align: left;&quot;&gt;&lt;font color=&quot;#000000&quot;&gt;&lt;span style=&quot;font-size: 15px;&quot;&gt;&lt;b&gt;k 9x5&lt;/b&gt;&lt;/span&gt;&lt;/font&gt;&lt;/div&gt;&lt;div style=&quot;text-align: left;&quot;&gt;&lt;font color=&quot;#000000&quot;&gt;&lt;span style=&quot;font-size: 15px;&quot;&gt;&lt;b&gt;c 64&lt;/b&gt;&lt;/span&gt;&lt;/font&gt;&lt;/div&gt;&lt;div style=&quot;text-align: left;&quot;&gt;&lt;font color=&quot;#000000&quot;&gt;&lt;span style=&quot;font-size: 15px;&quot;&gt;&lt;b&gt;s 9x1&lt;/b&gt;&lt;/span&gt;&lt;/font&gt;&lt;/div&gt;" style="text;html=1;strokeColor=none;fillColor=none;align=center;verticalAlign=middle;whiteSpace=wrap;rounded=0;fontSize=20;fontColor=#FFFFFF;" parent="r0upS1l9h9ShBbEGeOB--30" vertex="1">
          <mxGeometry x="590" y="-50" width="60" height="30" as="geometry" />
        </mxCell>
        <mxCell id="r0upS1l9h9ShBbEGeOB--36" value="Encoder" style="text;strokeColor=none;fillColor=none;html=1;fontSize=24;fontStyle=1;verticalAlign=middle;align=center;" parent="r0upS1l9h9ShBbEGeOB--30" vertex="1">
          <mxGeometry x="740" y="-40" width="100" height="40" as="geometry" />
        </mxCell>
        <mxCell id="r0upS1l9h9ShBbEGeOB--39" value="" style="rounded=0;whiteSpace=wrap;html=1;strokeColor=#432D57;strokeWidth=5;fillColor=#76608a;fontColor=#ffffff;container=0;" parent="1" vertex="1">
          <mxGeometry x="90" y="680" width="45" height="120" as="geometry" />
        </mxCell>
        <mxCell id="r0upS1l9h9ShBbEGeOB--88" style="edgeStyle=orthogonalEdgeStyle;curved=1;rounded=1;orthogonalLoop=1;jettySize=auto;html=1;exitX=1;exitY=0.5;exitDx=0;exitDy=0;strokeWidth=5;endArrow=none;endFill=0;elbow=vertical;" parent="1" source="r0upS1l9h9ShBbEGeOB--67" edge="1">
          <mxGeometry relative="1" as="geometry">
            <mxPoint x="397" y="740" as="targetPoint" />
          </mxGeometry>
        </mxCell>
        <mxCell id="r0upS1l9h9ShBbEGeOB--92" value="Decoder" style="text;strokeColor=none;fillColor=none;html=1;fontSize=24;fontStyle=1;verticalAlign=middle;align=center;" parent="1" vertex="1">
          <mxGeometry x="827" y="810" width="100" height="40" as="geometry" />
        </mxCell>
        <mxCell id="r0upS1l9h9ShBbEGeOB--94" style="edgeStyle=orthogonalEdgeStyle;rounded=1;orthogonalLoop=1;jettySize=auto;html=1;exitX=0;exitY=0.5;exitDx=0;exitDy=0;entryX=0;entryY=0.5;entryDx=0;entryDy=0;strokeWidth=5;fontSize=16;startArrow=none;startFill=0;endArrow=none;endFill=0;elbow=vertical;" parent="1" source="r0upS1l9h9ShBbEGeOB--65" target="r0upS1l9h9ShBbEGeOB--142" edge="1">
          <mxGeometry relative="1" as="geometry">
            <mxPoint x="245" y="740" as="targetPoint" />
          </mxGeometry>
        </mxCell>
        <mxCell id="r0upS1l9h9ShBbEGeOB--65" value="" style="rounded=0;whiteSpace=wrap;html=1;strokeWidth=5;strokeColor=none;fillColor=#CC00CC;container=0;" parent="1" vertex="1">
          <mxGeometry x="280" y="680" width="30" height="120" as="geometry" />
        </mxCell>
        <mxCell id="r0upS1l9h9ShBbEGeOB--66" value="" style="rounded=0;whiteSpace=wrap;html=1;strokeWidth=5;strokeColor=none;fillColor=#99FF99;container=0;" parent="1" vertex="1">
          <mxGeometry x="310" y="680" width="30" height="120" as="geometry" />
        </mxCell>
        <mxCell id="r0upS1l9h9ShBbEGeOB--67" value="" style="rounded=0;whiteSpace=wrap;html=1;strokeWidth=5;strokeColor=none;fillColor=#6666FF;container=0;" parent="1" vertex="1">
          <mxGeometry x="340" y="680" width="30" height="120" as="geometry" />
        </mxCell>
        <mxCell id="r0upS1l9h9ShBbEGeOB--110" value="" style="edgeStyle=orthogonalEdgeStyle;curved=1;rounded=1;orthogonalLoop=1;jettySize=auto;html=1;strokeWidth=5;fontSize=16;startArrow=none;startFill=0;endArrow=none;endFill=0;elbow=vertical;" parent="1" source="r0upS1l9h9ShBbEGeOB--68" target="r0upS1l9h9ShBbEGeOB--67" edge="1">
          <mxGeometry relative="1" as="geometry" />
        </mxCell>
        <mxCell id="r0upS1l9h9ShBbEGeOB--68" value="" style="rounded=0;whiteSpace=wrap;html=1;strokeWidth=5;strokeColor=none;fillColor=#CC00CC;container=0;" parent="1" vertex="1">
          <mxGeometry x="400" y="680" width="30" height="120" as="geometry" />
        </mxCell>
        <mxCell id="r0upS1l9h9ShBbEGeOB--69" value="" style="rounded=0;whiteSpace=wrap;html=1;strokeWidth=5;strokeColor=none;fillColor=#99FF99;container=0;" parent="1" vertex="1">
          <mxGeometry x="430" y="680" width="30" height="120" as="geometry" />
        </mxCell>
        <mxCell id="r0upS1l9h9ShBbEGeOB--70" value="" style="rounded=0;whiteSpace=wrap;html=1;strokeWidth=5;strokeColor=none;fillColor=#6666FF;container=0;" parent="1" vertex="1">
          <mxGeometry x="460" y="680" width="30" height="120" as="geometry" />
        </mxCell>
        <mxCell id="r0upS1l9h9ShBbEGeOB--95" style="edgeStyle=orthogonalEdgeStyle;rounded=1;orthogonalLoop=1;jettySize=auto;html=1;entryX=1;entryY=0.5;entryDx=0;entryDy=0;strokeWidth=5;fontSize=16;startArrow=none;startFill=0;endArrow=classic;endFill=1;elbow=vertical;exitX=0.5;exitY=0;exitDx=0;exitDy=0;" parent="1" source="r0upS1l9h9ShBbEGeOB--141" target="r0upS1l9h9ShBbEGeOB--39" edge="1">
          <mxGeometry relative="1" as="geometry">
            <mxPoint x="200" y="740" as="sourcePoint" />
          </mxGeometry>
        </mxCell>
        <mxCell id="r0upS1l9h9ShBbEGeOB--93" style="rounded=1;orthogonalLoop=1;jettySize=auto;html=1;exitX=1;exitY=0.5;exitDx=0;exitDy=0;entryX=1;entryY=0.5;entryDx=0;entryDy=0;strokeWidth=5;fontSize=16;startArrow=none;startFill=0;endArrow=none;endFill=0;elbow=vertical;edgeStyle=orthogonalEdgeStyle;" parent="1" source="r0upS1l9h9ShBbEGeOB--21" target="r0upS1l9h9ShBbEGeOB--79" edge="1">
          <mxGeometry relative="1" as="geometry">
            <Array as="points">
              <mxPoint x="980" y="500" />
              <mxPoint x="980" y="740" />
            </Array>
          </mxGeometry>
        </mxCell>
        <mxCell id="r0upS1l9h9ShBbEGeOB--117" style="rounded=1;orthogonalLoop=1;jettySize=auto;html=1;exitX=1;exitY=0.5;exitDx=0;exitDy=0;strokeWidth=5;fontSize=16;startArrow=none;startFill=0;endArrow=none;endFill=0;elbow=vertical;" parent="1" source="r0upS1l9h9ShBbEGeOB--38" edge="1">
          <mxGeometry relative="1" as="geometry">
            <mxPoint x="800" y="590" as="targetPoint" />
          </mxGeometry>
        </mxCell>
        <mxCell id="r0upS1l9h9ShBbEGeOB--38" value="&lt;span style=&quot;font-size: 20px;&quot;&gt;&lt;b&gt;Target Identity&lt;/b&gt;&lt;/span&gt;" style="rounded=0;whiteSpace=wrap;html=1;strokeColor=#432D57;strokeWidth=5;fillColor=#76608a;fontColor=#ffffff;container=0;" parent="1" vertex="1">
          <mxGeometry x="816" y="572.5" width="150" height="35" as="geometry" />
        </mxCell>
        <mxCell id="r0upS1l9h9ShBbEGeOB--122" value="&lt;font color=&quot;#ffffff&quot; style=&quot;font-size: 20px;&quot;&gt;&lt;b&gt;Output&lt;/b&gt;&lt;/font&gt;" style="text;html=1;strokeColor=none;fillColor=none;align=center;verticalAlign=middle;whiteSpace=wrap;rounded=0;fontSize=16;rotation=-90;" parent="1" vertex="1">
          <mxGeometry x="82.5" y="725" width="60" height="30" as="geometry" />
        </mxCell>
        <mxCell id="r0upS1l9h9ShBbEGeOB--131" style="edgeStyle=none;rounded=1;orthogonalLoop=1;jettySize=auto;html=1;entryX=0;entryY=0.5;entryDx=0;entryDy=0;strokeWidth=5;fontSize=20;fontColor=#FFFFFF;startArrow=none;startFill=0;endArrow=none;endFill=0;elbow=vertical;" parent="1" source="r0upS1l9h9ShBbEGeOB--126" target="r0upS1l9h9ShBbEGeOB--71" edge="1">
          <mxGeometry relative="1" as="geometry" />
        </mxCell>
        <mxCell id="r0upS1l9h9ShBbEGeOB--129" value="" style="group;rotation=-180;" parent="1" vertex="1" connectable="0">
          <mxGeometry x="637" y="680" width="130" height="120" as="geometry" />
        </mxCell>
        <mxCell id="r0upS1l9h9ShBbEGeOB--77" value="" style="rounded=0;whiteSpace=wrap;html=1;strokeWidth=5;strokeColor=none;fillColor=#CC00CC;container=0;rotation=-180;" parent="r0upS1l9h9ShBbEGeOB--129" vertex="1">
          <mxGeometry x="80" width="39.99999999999999" height="120" as="geometry" />
        </mxCell>
        <mxCell id="r0upS1l9h9ShBbEGeOB--78" value="" style="rounded=0;whiteSpace=wrap;html=1;strokeWidth=5;strokeColor=none;fillColor=#99FF99;container=0;rotation=-180;" parent="r0upS1l9h9ShBbEGeOB--129" vertex="1">
          <mxGeometry x="40" width="39.99999999999999" height="120" as="geometry" />
        </mxCell>
        <mxCell id="r0upS1l9h9ShBbEGeOB--79" value="" style="rounded=0;whiteSpace=wrap;html=1;strokeWidth=5;strokeColor=none;fillColor=#6666FF;container=0;rotation=-180;" parent="r0upS1l9h9ShBbEGeOB--129" vertex="1">
          <mxGeometry width="39.99999999999999" height="120" as="geometry" />
        </mxCell>
        <mxCell id="r0upS1l9h9ShBbEGeOB--128" value="&lt;font color=&quot;#ffffff&quot; style=&quot;font-size: 20px;&quot;&gt;&lt;b&gt;GLU&lt;/b&gt;&lt;/font&gt;" style="text;html=1;strokeColor=none;fillColor=none;align=center;verticalAlign=middle;whiteSpace=wrap;rounded=0;fontSize=16;rotation=-90;" parent="r0upS1l9h9ShBbEGeOB--129" vertex="1">
          <mxGeometry x="-10" y="45" width="60" height="30" as="geometry" />
        </mxCell>
        <mxCell id="r0upS1l9h9ShBbEGeOB--126" value="&lt;font color=&quot;#ffffff&quot;&gt;&lt;span style=&quot;font-size: 20px;&quot;&gt;&lt;b&gt;Deconv&lt;/b&gt;&lt;/span&gt;&lt;/font&gt;" style="text;html=1;strokeColor=none;fillColor=none;align=center;verticalAlign=middle;whiteSpace=wrap;rounded=0;fontSize=16;rotation=-90;" parent="r0upS1l9h9ShBbEGeOB--129" vertex="1">
          <mxGeometry x="70" y="45" width="60" height="30" as="geometry" />
        </mxCell>
        <mxCell id="r0upS1l9h9ShBbEGeOB--127" value="&lt;font color=&quot;#ffffff&quot; style=&quot;font-size: 20px;&quot;&gt;&lt;b&gt;Batch norm&lt;/b&gt;&lt;/font&gt;" style="text;html=1;strokeColor=none;fillColor=none;align=center;verticalAlign=middle;whiteSpace=wrap;rounded=0;fontSize=16;rotation=-90;" parent="1" vertex="1">
          <mxGeometry x="632" y="727.5" width="130" height="25" as="geometry" />
        </mxCell>
        <mxCell id="r0upS1l9h9ShBbEGeOB--130" value="" style="group;rotation=-180;" parent="1" vertex="1" connectable="0">
          <mxGeometry x="520" y="680" width="90" height="120" as="geometry" />
        </mxCell>
        <mxCell id="r0upS1l9h9ShBbEGeOB--71" value="" style="rounded=0;whiteSpace=wrap;html=1;strokeWidth=5;strokeColor=none;fillColor=#CC00CC;container=0;rotation=-180;" parent="r0upS1l9h9ShBbEGeOB--130" vertex="1">
          <mxGeometry x="60" width="30" height="120" as="geometry" />
        </mxCell>
        <mxCell id="r0upS1l9h9ShBbEGeOB--72" value="" style="rounded=0;whiteSpace=wrap;html=1;strokeWidth=5;strokeColor=none;fillColor=#99FF99;container=0;rotation=-180;" parent="r0upS1l9h9ShBbEGeOB--130" vertex="1">
          <mxGeometry x="30" width="30" height="120" as="geometry" />
        </mxCell>
        <mxCell id="r0upS1l9h9ShBbEGeOB--73" value="" style="rounded=0;whiteSpace=wrap;html=1;strokeWidth=5;strokeColor=none;fillColor=#6666FF;container=0;rotation=-180;" parent="r0upS1l9h9ShBbEGeOB--130" vertex="1">
          <mxGeometry width="30" height="120" as="geometry" />
        </mxCell>
        <mxCell id="r0upS1l9h9ShBbEGeOB--132" value="" style="group;rotation=-180;" parent="1" vertex="1" connectable="0">
          <mxGeometry x="400" y="680" width="90" height="120" as="geometry" />
        </mxCell>
        <mxCell id="r0upS1l9h9ShBbEGeOB--133" value="" style="rounded=0;whiteSpace=wrap;html=1;strokeWidth=5;strokeColor=none;fillColor=#CC00CC;container=0;rotation=-180;" parent="r0upS1l9h9ShBbEGeOB--132" vertex="1">
          <mxGeometry x="60" width="30" height="120" as="geometry" />
        </mxCell>
        <mxCell id="r0upS1l9h9ShBbEGeOB--134" value="" style="rounded=0;whiteSpace=wrap;html=1;strokeWidth=5;strokeColor=none;fillColor=#99FF99;container=0;rotation=-180;" parent="r0upS1l9h9ShBbEGeOB--132" vertex="1">
          <mxGeometry x="30" width="30" height="120" as="geometry" />
        </mxCell>
        <mxCell id="r0upS1l9h9ShBbEGeOB--135" value="" style="rounded=0;whiteSpace=wrap;html=1;strokeWidth=5;strokeColor=none;fillColor=#6666FF;container=0;rotation=-180;" parent="r0upS1l9h9ShBbEGeOB--132" vertex="1">
          <mxGeometry width="30" height="120" as="geometry" />
        </mxCell>
        <mxCell id="r0upS1l9h9ShBbEGeOB--136" value="" style="group;rotation=-180;" parent="1" vertex="1" connectable="0">
          <mxGeometry x="280" y="680" width="90" height="120" as="geometry" />
        </mxCell>
        <mxCell id="r0upS1l9h9ShBbEGeOB--137" value="" style="rounded=0;whiteSpace=wrap;html=1;strokeWidth=5;strokeColor=none;fillColor=#CC00CC;container=0;rotation=-180;" parent="r0upS1l9h9ShBbEGeOB--136" vertex="1">
          <mxGeometry x="60" width="30" height="120" as="geometry" />
        </mxCell>
        <mxCell id="r0upS1l9h9ShBbEGeOB--138" value="" style="rounded=0;whiteSpace=wrap;html=1;strokeWidth=5;strokeColor=none;fillColor=#99FF99;container=0;rotation=-180;" parent="r0upS1l9h9ShBbEGeOB--136" vertex="1">
          <mxGeometry x="30" width="30" height="120" as="geometry" />
        </mxCell>
        <mxCell id="r0upS1l9h9ShBbEGeOB--139" value="" style="rounded=0;whiteSpace=wrap;html=1;strokeWidth=5;strokeColor=none;fillColor=#6666FF;container=0;rotation=-180;" parent="r0upS1l9h9ShBbEGeOB--136" vertex="1">
          <mxGeometry width="30" height="120" as="geometry" />
        </mxCell>
        <mxCell id="r0upS1l9h9ShBbEGeOB--140" style="edgeStyle=none;rounded=1;orthogonalLoop=1;jettySize=auto;html=1;exitX=1;exitY=0.5;exitDx=0;exitDy=0;entryX=0;entryY=0.5;entryDx=0;entryDy=0;strokeWidth=5;fontSize=20;fontColor=#FFFFFF;startArrow=none;startFill=0;endArrow=none;endFill=0;elbow=vertical;" parent="1" source="r0upS1l9h9ShBbEGeOB--73" target="r0upS1l9h9ShBbEGeOB--133" edge="1">
          <mxGeometry relative="1" as="geometry" />
        </mxCell>
        <mxCell id="r0upS1l9h9ShBbEGeOB--142" value="" style="rounded=0;whiteSpace=wrap;html=1;strokeWidth=5;strokeColor=none;fillColor=#CC00CC;container=0;rotation=-180;" parent="1" vertex="1">
          <mxGeometry x="202.5" y="680" width="39.99999999999999" height="120" as="geometry" />
        </mxCell>
        <mxCell id="r0upS1l9h9ShBbEGeOB--141" value="&lt;font color=&quot;#ffffff&quot; style=&quot;font-size: 20px;&quot;&gt;&lt;b&gt;Deconv&lt;/b&gt;&lt;/font&gt;" style="text;html=1;strokeColor=none;fillColor=none;align=center;verticalAlign=middle;whiteSpace=wrap;rounded=0;fontSize=16;rotation=-90;" parent="1" vertex="1">
          <mxGeometry x="192.5" y="725" width="60" height="30" as="geometry" />
        </mxCell>
        <mxCell id="r0upS1l9h9ShBbEGeOB--143" value="&lt;div style=&quot;text-align: left;&quot;&gt;&lt;span style=&quot;font-size: 15px; color: rgb(0, 0, 0); background-color: initial;&quot;&gt;&lt;b&gt;h 36&lt;/b&gt;&lt;/span&gt;&lt;/div&gt;&lt;font color=&quot;#000000&quot; style=&quot;font-size: 15px;&quot;&gt;&lt;b&gt;&lt;div style=&quot;text-align: left;&quot;&gt;&lt;span style=&quot;background-color: initial;&quot;&gt;w 512&lt;/span&gt;&lt;/div&gt;&lt;div style=&quot;text-align: left;&quot;&gt;&lt;span style=&quot;background-color: initial;&quot;&gt;c 1&lt;/span&gt;&lt;/div&gt;&lt;/b&gt;&lt;/font&gt;" style="text;html=1;strokeColor=none;fillColor=none;align=center;verticalAlign=middle;whiteSpace=wrap;rounded=0;fontSize=20;fontColor=#FFFFFF;" parent="1" vertex="1">
          <mxGeometry x="82.5" y="390" width="60" height="30" as="geometry" />
        </mxCell>
        <mxCell id="r0upS1l9h9ShBbEGeOB--144" value="&lt;div style=&quot;text-align: left;&quot;&gt;&lt;span style=&quot;font-size: 15px; color: rgb(0, 0, 0); background-color: initial;&quot;&gt;&lt;b&gt;h 36&lt;/b&gt;&lt;/span&gt;&lt;/div&gt;&lt;font color=&quot;#000000&quot; style=&quot;font-size: 15px;&quot;&gt;&lt;b&gt;&lt;div style=&quot;text-align: left;&quot;&gt;&lt;span style=&quot;background-color: initial;&quot;&gt;w 512&lt;/span&gt;&lt;/div&gt;&lt;div style=&quot;text-align: left;&quot;&gt;&lt;span style=&quot;background-color: initial;&quot;&gt;c 1&lt;/span&gt;&lt;/div&gt;&lt;/b&gt;&lt;/font&gt;" style="text;html=1;strokeColor=none;fillColor=none;align=center;verticalAlign=middle;whiteSpace=wrap;rounded=0;fontSize=20;fontColor=#FFFFFF;" parent="1" vertex="1">
          <mxGeometry x="82.5" y="820" width="60" height="30" as="geometry" />
        </mxCell>
        <mxCell id="r0upS1l9h9ShBbEGeOB--145" value="&lt;div style=&quot;text-align: left;&quot;&gt;&lt;span style=&quot;font-size: 15px; color: rgb(0, 0, 0); background-color: initial;&quot;&gt;&lt;b&gt;h 1&lt;/b&gt;&lt;/span&gt;&lt;/div&gt;&lt;font color=&quot;#000000&quot; style=&quot;font-size: 15px;&quot;&gt;&lt;b&gt;&lt;div style=&quot;text-align: left;&quot;&gt;&lt;span style=&quot;background-color: initial;&quot;&gt;w 128&lt;/span&gt;&lt;/div&gt;&lt;div style=&quot;text-align: left;&quot;&gt;&lt;span style=&quot;background-color: initial;&quot;&gt;c 4&lt;/span&gt;&lt;/div&gt;&lt;/b&gt;&lt;/font&gt;" style="text;html=1;strokeColor=none;fillColor=none;align=center;verticalAlign=middle;whiteSpace=wrap;rounded=0;fontSize=20;fontColor=#FFFFFF;" parent="1" vertex="1">
          <mxGeometry x="780" y="680" width="60" height="30" as="geometry" />
        </mxCell>
        <mxCell id="r0upS1l9h9ShBbEGeOB--156" value="&lt;div style=&quot;text-align: left;&quot;&gt;&lt;font color=&quot;#000000&quot;&gt;&lt;span style=&quot;font-size: 15px;&quot;&gt;&lt;b&gt;k 9x5&lt;/b&gt;&lt;/span&gt;&lt;/font&gt;&lt;/div&gt;&lt;div style=&quot;text-align: left;&quot;&gt;&lt;font color=&quot;#000000&quot;&gt;&lt;span style=&quot;font-size: 15px;&quot;&gt;&lt;b&gt;c 64&lt;/b&gt;&lt;/span&gt;&lt;/font&gt;&lt;/div&gt;&lt;div style=&quot;text-align: left;&quot;&gt;&lt;font color=&quot;#000000&quot;&gt;&lt;span style=&quot;font-size: 15px;&quot;&gt;&lt;b&gt;s 9x1&lt;/b&gt;&lt;/span&gt;&lt;/font&gt;&lt;/div&gt;" style="text;html=1;strokeColor=none;fillColor=none;align=center;verticalAlign=middle;whiteSpace=wrap;rounded=0;fontSize=20;fontColor=#FFFFFF;" parent="1" vertex="1">
          <mxGeometry x="700" y="820" width="60" height="30" as="geometry" />
        </mxCell>
        <mxCell id="r0upS1l9h9ShBbEGeOB--157" value="&lt;div style=&quot;text-align: left;&quot;&gt;&lt;font color=&quot;#000000&quot;&gt;&lt;span style=&quot;font-size: 15px;&quot;&gt;&lt;b&gt;k 3x5&lt;/b&gt;&lt;/span&gt;&lt;/font&gt;&lt;/div&gt;&lt;div style=&quot;text-align: left;&quot;&gt;&lt;font color=&quot;#000000&quot;&gt;&lt;span style=&quot;font-size: 15px;&quot;&gt;&lt;b&gt;c 128&lt;/b&gt;&lt;/span&gt;&lt;/font&gt;&lt;/div&gt;&lt;div style=&quot;text-align: left;&quot;&gt;&lt;font color=&quot;#000000&quot;&gt;&lt;span style=&quot;font-size: 15px;&quot;&gt;&lt;b&gt;s 1x1&lt;/b&gt;&lt;/span&gt;&lt;/font&gt;&lt;/div&gt;" style="text;html=1;strokeColor=none;fillColor=none;align=center;verticalAlign=middle;whiteSpace=wrap;rounded=0;fontSize=20;fontColor=#FFFFFF;" parent="1" vertex="1">
          <mxGeometry x="550" y="820" width="60" height="30" as="geometry" />
        </mxCell>
        <mxCell id="r0upS1l9h9ShBbEGeOB--158" value="&lt;div style=&quot;text-align: left;&quot;&gt;&lt;font color=&quot;#000000&quot;&gt;&lt;span style=&quot;font-size: 15px;&quot;&gt;&lt;b&gt;k 4x8&lt;/b&gt;&lt;/span&gt;&lt;/font&gt;&lt;/div&gt;&lt;div style=&quot;text-align: left;&quot;&gt;&lt;font color=&quot;#000000&quot;&gt;&lt;span style=&quot;font-size: 15px;&quot;&gt;&lt;b&gt;c 64&lt;/b&gt;&lt;/span&gt;&lt;/font&gt;&lt;/div&gt;&lt;div style=&quot;text-align: left;&quot;&gt;&lt;font color=&quot;#000000&quot;&gt;&lt;span style=&quot;font-size: 15px;&quot;&gt;&lt;b&gt;s 2x2&lt;/b&gt;&lt;/span&gt;&lt;/font&gt;&lt;/div&gt;" style="text;html=1;strokeColor=none;fillColor=none;align=center;verticalAlign=middle;whiteSpace=wrap;rounded=0;fontSize=20;fontColor=#FFFFFF;" parent="1" vertex="1">
          <mxGeometry x="430" y="820" width="60" height="30" as="geometry" />
        </mxCell>
        <mxCell id="r0upS1l9h9ShBbEGeOB--159" value="&lt;div style=&quot;text-align: left;&quot;&gt;&lt;font color=&quot;#000000&quot;&gt;&lt;span style=&quot;font-size: 15px;&quot;&gt;&lt;b&gt;k 4x8&lt;/b&gt;&lt;/span&gt;&lt;/font&gt;&lt;/div&gt;&lt;div style=&quot;text-align: left;&quot;&gt;&lt;font color=&quot;#000000&quot;&gt;&lt;span style=&quot;font-size: 15px;&quot;&gt;&lt;b&gt;c 32&lt;/b&gt;&lt;/span&gt;&lt;/font&gt;&lt;/div&gt;&lt;div style=&quot;text-align: left;&quot;&gt;&lt;font color=&quot;#000000&quot;&gt;&lt;span style=&quot;font-size: 15px;&quot;&gt;&lt;b&gt;s 2x2&lt;/b&gt;&lt;/span&gt;&lt;/font&gt;&lt;/div&gt;" style="text;html=1;strokeColor=none;fillColor=none;align=center;verticalAlign=middle;whiteSpace=wrap;rounded=0;fontSize=20;fontColor=#FFFFFF;" parent="1" vertex="1">
          <mxGeometry x="310" y="820" width="60" height="30" as="geometry" />
        </mxCell>
        <mxCell id="r0upS1l9h9ShBbEGeOB--160" value="&lt;div style=&quot;text-align: left;&quot;&gt;&lt;font color=&quot;#000000&quot;&gt;&lt;span style=&quot;font-size: 15px;&quot;&gt;&lt;b&gt;k 3x9&lt;/b&gt;&lt;/span&gt;&lt;/font&gt;&lt;/div&gt;&lt;div style=&quot;text-align: left;&quot;&gt;&lt;font color=&quot;#000000&quot;&gt;&lt;span style=&quot;font-size: 15px;&quot;&gt;&lt;b&gt;c 1&lt;/b&gt;&lt;/span&gt;&lt;/font&gt;&lt;/div&gt;&lt;div style=&quot;text-align: left;&quot;&gt;&lt;font color=&quot;#000000&quot;&gt;&lt;span style=&quot;font-size: 15px;&quot;&gt;&lt;b&gt;s 1x1&lt;/b&gt;&lt;/span&gt;&lt;/font&gt;&lt;/div&gt;" style="text;html=1;strokeColor=none;fillColor=none;align=center;verticalAlign=middle;whiteSpace=wrap;rounded=0;fontSize=20;fontColor=#FFFFFF;" parent="1" vertex="1">
          <mxGeometry x="192.5" y="820" width="60" height="30" as="geometry" />
        </mxCell>
      </root>
    </mxGraphModel>
  </diagram>
</mxfile>
